<svg width="400" height="400" viewBox="0 0 400 400" xmlns="http://www.w3.org/2000/svg">
  <!-- Mimi Character -->
  <!-- Hair -->
  <path d="M120 140 C110 120, 130 100, 160 110 C180 105, 200 105, 220 110 C250 100, 270 120, 260 140 C270 150, 280 170, 275 190 C270 210, 250 215, 240 200 C235 185, 225 175, 220 170 C210 175, 190 175, 180 175 C170 175, 150 175, 140 170 C135 175, 125 185, 120 200 C110 215, 90 210, 85 190 C80 170, 90 150, 100 140" fill="#2d5a52" stroke="#1a3d36" stroke-width="2"/>
  
  <!-- Face -->
  <ellipse cx="190" cy="180" rx="50" ry="45" fill="#f4c2a1" stroke="#1a3d36" stroke-width="2"/>
  
  <!-- Eyes -->
  <ellipse cx="175" cy="170" rx="8" ry="12" fill="#2d5a52"/>
  <ellipse cx="205" cy="170" rx="8" ry="12" fill="#2d5a52"/>
  <ellipse cx="177" cy="167" rx="3" ry="4" fill="white"/>
  <ellipse cx="207" cy="167" rx="3" ry="4" fill="white"/>
  
  <!-- Eyebrows -->
  <path d="M165 155 Q175 150 185 155" stroke="#1a3d36" stroke-width="2" fill="none"/>
  <path d="M195 155 Q205 150 215 155" stroke="#1a3d36" stroke-width="2" fill="none"/>
  
  <!-- Nose -->
  <ellipse cx="190" cy="180" rx="2" ry="3" fill="#e6a373"/>
  
  <!-- Mouth -->
  <path d="M180 195 Q190 205 200 195" stroke="#1a3d36" stroke-width="2" fill="#d94c4c"/>
  <path d="M185 200 Q190 202 195 200" stroke="white" stroke-width="1" fill="none"/>
  
  <!-- Nurse Hat -->
  <path d="M150 130 C150 120, 160 115, 190 115 C220 115, 230 120, 230 130 C235 135, 240 140, 235 145 C230 150, 220 145, 210 140 C200 135, 180 135, 170 140 C160 145, 150 150, 145 145 C140 140, 145 135, 150 130" fill="white" stroke="#1a3d36" stroke-width="2"/>
  <rect x="185" y="115" width="10" height="15" fill="white" stroke="#1a3d36" stroke-width="1"/>
  
  <!-- Body/Dress -->
  <ellipse cx="190" cy="270" rx="60" ry="80" fill="#d2691e" stroke="#1a3d36" stroke-width="2"/>
  
  <!-- Apron -->
  <path d="M140 240 C140 235, 145 230, 190 230 C235 230, 240 235, 240 240 L235 320 C235 325, 230 330, 190 330 C150 330, 145 325, 145 320 Z" fill="white" stroke="#1a3d36" stroke-width="2"/>
  
  <!-- Arms -->
  <ellipse cx="120" cy="250" rx="20" ry="35" fill="#f4c2a1" stroke="#1a3d36" stroke-width="2" transform="rotate(-30 120 250)"/>
  <ellipse cx="260" cy="250" rx="20" ry="35" fill="#f4c2a1" stroke="#1a3d36" stroke-width="2" transform="rotate(30 260 250)"/>
  
  <!-- Hands -->
  <circle cx="105" cy="235" r="12" fill="#f4c2a1" stroke="#1a3d36" stroke-width="2"/>
  <circle cx="275" cy="235" r="12" fill="#f4c2a1" stroke="#1a3d36" stroke-width="2"/>
  
  <!-- Coffee Cup -->
  <ellipse cx="90" cy="225" rx="15" ry="8" fill="#d2691e" stroke="#1a3d36" stroke-width="2"/>
  <rect x="75" y="215" width="30" height="20" fill="#d2691e" stroke="#1a3d36" stroke-width="2"/>
  <path d="M105 220 C110 220, 115 225, 110 230 C105 235, 100 230, 105 225" stroke="#1a3d36" stroke-width="2" fill="none"/>
  
  <!-- Coffee Steam -->
  <path d="M85 210 Q87 205 85 200 Q83 195 85 190" stroke="#d2691e" stroke-width="2" fill="none"/>
  <path d="M95 210 Q97 205 95 200 Q93 195 95 190" stroke="#d2691e" stroke-width="2" fill="none"/>
  
  <!-- Sparkle -->
  <polygon points="320,160 325,170 335,170 327,177 330,187 320,180 310,187 313,177 305,170 315,170" fill="#d2691e"/>
  
  <!-- Legs -->
  <ellipse cx="170" cy="350" rx="12" ry="25" fill="#f4c2a1" stroke="#1a3d36" stroke-width="2"/>
  <ellipse cx="210" cy="350" rx="12" ry="25" fill="#f4c2a1" stroke="#1a3d36" stroke-width="2"/>
  
  <!-- Shoes -->
  <ellipse cx="170" cy="375" rx="18" ry="10" fill="#2d5a52" stroke="#1a3d36" stroke-width="2"/>
  <ellipse cx="210" cy="375" rx="18" ry="10" fill="#2d5a52" stroke="#1a3d36" stroke-width="2"/>
  
  <!-- Text -->
  <text x="50" y="320" font-family="Arial Black, sans-serif" font-size="48" font-weight="bold" fill="#d2691e" stroke="#1a3d36" stroke-width="1">MIMI</text>
  <text x="50" y="365" font-family="Arial, sans-serif" font-size="24" font-weight="bold" fill="#d2691e">WAITRESS</text>
</svg>