<svg xmlns="http://www.w3.org/2000/svg" viewBox="0 0 120 120" fill="none" stroke="currentColor" stroke-width="4" stroke-linecap="round" stroke-linejoin="round">
  <!-- Speech bubble -->
  <path d="M60 10C32 10 10 32 10 55c0 12 5 22 14 30l-6 20 22-11c6 3 13 4 20 4 28 0 50-18 50-43S88 10 60 10z"/>
  <!-- Fork (left, going down-right) -->
  <line x1="38" y1="35" x2="70" y2="70"/>
  <line x1="38" y1="35" x2="32" y2="29"/>
  <line x1="38" y1="35" x2="38" y2="26"/>
  <line x1="38" y1="35" x2="44" y2="29"/>
  <!-- Knife (right, going down-left) -->
  <line x1="82" y1="35" x2="50" y2="70"/>
  <path d="M82 35c5 0 8 3 8 8s-3 10-8 10"/>
</svg>